 <svg  version="1.0" xmlns="http://www.w3.org/2000/svg"  width="247.000000pt" height="204.000000pt" viewBox="0 0 247.000000 204.000000"  preserveAspectRatio="xMidYMid meet">  <g transform="translate(0.000000,204.000000) scale(0.100000,-0.100000)" fill="#ffffff" stroke="none"> <path d="M1645 2008 c-26 -18 -61 -53 -79 -76 l-31 -44 0 -359 0 -359 32 -32 c30 -29 40 -33 103 -36 l70 -4 0 -75 c0 -54 5 -84 20 -113 19 -37 20 -59 20 -385 0 -380 2 -394 59 -435 18 -12 47 -22 66 -22 22 0 41 -8 56 -24 12 -13 37 -27 56 -30 28 -5 43 0 89 30 97 65 94 47 94 461 l1 360 24 50 c19 38 25 66 25 116 l0 66 66 7 c137 14 134 4 134 425 0 187 -4 351 -9 364 -14 35 -69 95 -113 123 -37 24 -39 24 -337 24 l-299 0 -47 -32z m715 -68 l50 -51 0 -357 c0 -265 -3 -361 -12 -370 -9 -9 -112 -12 -404 -12 -329 0 -393 2 -404 14 -8 11 -13 114 -16 365 l-5 350 53 56 54 55 317 0 316 0 51 -50z m-150 -913 c0 -62 -4 -78 -25 -107 l-25 -34 0 -377 0 -377 -28 -24 c-15 -12 -44 -32 -64 -42 -30 -16 -40 -17 -64 -8 l-29 12 3 415 2 415 -22 0 c-51 0 -49 10 -46 -412 l3 -396 -37 19 c-21 11 -42 28 -48 38 -6 13 -10 152 -10 381 0 338 -1 364 -19 388 -13 19 -20 49 -23 105 l-3 77 217 0 218 0 0 -73z"/> <path d="M1757 1843 c-11 -10 -8 -241 3 -248 12 -8 458 -8 470 0 15 9 13 228 -2 243 -13 13 -459 18 -471 5z m431 -45 c13 -13 16 -136 4 -156 -7 -9 -54 -12 -203 -10 l-194 3 -3 74 c-2 41 -1 80 2 88 7 18 376 19 394 1z"/> <path d="M945 1790 c-225 -10 -280 -17 -321 -36 -20 -10 -73 -65 -133 -139 -56 -68 -107 -128 -114 -132 -6 -4 -69 -10 -139 -13 -126 -5 -128 -5 -158 -36 -19 -19 -36 -51 -45 -84 -13 -48 -13 -57 1 -78 9 -13 29 -31 46 -40 64 -36 63 -33 27 -98 l-34 -59 -3 -412 -3 -412 30 -33 29 -33 222 0 222 0 24 29 c14 15 28 41 31 57 l6 29 539 0 539 0 24 25 25 24 0 251 c0 235 -1 253 -21 292 -12 23 -24 68 -26 99 -7 71 -24 89 -94 100 -28 5 -60 16 -70 25 -22 20 -39 74 -39 125 0 25 -7 42 -25 59 l-25 23 -427 -6 c-236 -4 -449 -10 -475 -13 -37 -5 -48 -4 -48 7 0 14 161 220 196 250 23 20 307 39 586 39 169 0 175 1 196 23 33 35 31 115 -3 147 -24 23 -32 24 -193 26 -92 1 -248 -2 -347 -6z m418 -37 l107 -6 0 -54 0 -53 -205 0 c-249 0 -555 -18 -574 -34 -26 -21 -271 -331 -271 -343 0 -8 12 -10 33 -7 78 10 498 24 745 24 l269 0 5 -69 c8 -108 59 -162 157 -165 l45 -1 -3 -60 c-2 -51 2 -65 23 -94 l26 -35 0 -258 0 -258 -565 2 -565 3 0 -47 c0 -75 -9 -78 -240 -78 -161 0 -199 3 -218 16 l-22 15 0 397 c1 439 1 438 65 516 21 26 36 48 34 49 -2 1 -33 16 -69 32 -36 16 -69 32 -74 37 -13 10 13 99 37 126 19 21 29 22 156 23 l136 0 75 96 c41 53 98 120 125 149 48 50 53 53 115 59 36 4 159 10 275 14 116 4 224 9 241 9 17 1 79 -1 137 -5z"/> <path d="M244 1054 c-12 -48 3 -107 34 -135 29 -26 34 -27 210 -34 99 -4 186 -4 191 0 6 3 11 29 11 56 0 41 -5 54 -26 74 -15 14 -30 25 -34 25 -3 0 -78 9 -166 20 -209 26 -212 26 -220 -6z m241 -40 c137 -16 169 -29 163 -68 -3 -20 -8 -21 -158 -18 -177 4 -200 12 -200 66 0 41 7 48 40 41 14 -2 83 -12 155 -21z"/> </g> </svg> 